<svg width="24" height="30" viewBox="0 0 24 30" fill="none" xmlns="http://www.w3.org/2000/svg">
<path d="M0 25.5V22.5H3V12C3 9.925 3.625 8.0875 4.875 6.4875C6.125 4.8625 7.75 3.8 9.75 3.3V2.25C9.75 1.625 9.9625 1.1 10.3875 0.674998C10.8375 0.224999 11.375 0 12 0C12.625 0 13.15 0.224999 13.575 0.674998C14.025 1.1 14.25 1.625 14.25 2.25V3.3C16.25 3.8 17.875 4.8625 19.125 6.4875C20.375 8.0875 21 9.925 21 12V22.5H24V25.5H0ZM12 30C11.175 30 10.4625 29.7125 9.8625 29.1375C9.2875 28.5375 9 27.825 9 27H15C15 27.825 14.7 28.5375 14.1 29.1375C13.525 29.7125 12.825 30 12 30ZM6 22.5H18V12C18 10.35 17.4125 8.9375 16.2375 7.7625C15.0625 6.5875 13.65 6 12 6C10.35 6 8.9375 6.5875 7.7625 7.7625C6.5875 8.9375 6 10.35 6 12V22.5Z" fill="white"/>
</svg>
